<?xml version="1.0" encoding="UTF-8" standalone="no"?>
<svg
   version="1.1"
   width="2.7737193in"
   height="4.145813in"
   viewBox="0 0 199.70804 298.49913"
   id="svg41"
   xmlns="http://www.w3.org/2000/svg"
   xmlns:svg="http://www.w3.org/2000/svg">
  <defs
     id="defs41" />
  <path
     d="m 99.854083,115.8868 -33.3621,33.3627 33.3621,33.362 33.362307,-33.3623 z"
     style="fill:none;stroke:#c0caf5;stroke-width:2.126;stroke-linecap:round;stroke-linejoin:round;stroke-dasharray:none;stroke-opacity:1"
     id="path2" />
  <path
     d="m 58.475283,157.2661 41.3788,41.3788 41.379307,-41.3791"
     style="fill:none;stroke:#c0caf5;stroke-width:2.126;stroke-linecap:round;stroke-linejoin:round;stroke-dasharray:none;stroke-opacity:1"
     id="path3" />
  <path
     d="M 99.854083,297.436 V 198.6449"
     style="fill:none;stroke:#c0caf5;stroke-width:2.126;stroke-linecap:round;stroke-linejoin:round;stroke-dasharray:none;stroke-opacity:1"
     id="path4" />
  <path
     d="m 149.24969,165.2825 -38.0571,38.0571 v 66.7244 l 71.4192,-71.4194 -82.757707,-82.7578 -82.7578,82.7581 71.4192,71.4191 v -66.7244 l -38.0568,-38.0568"
     style="fill:none;stroke:#c0caf5;stroke-width:2.126;stroke-linecap:round;stroke-linejoin:round;stroke-dasharray:none;stroke-opacity:1"
     id="path5" />
  <path
     d="M 1.0629827,198.6449 99.854083,99.853501 198.64509,198.6446 99.854083,297.436 Z"
     style="fill:none;stroke:#c0caf5;stroke-width:2.126;stroke-linecap:round;stroke-linejoin:round;stroke-dasharray:none;stroke-opacity:1"
     id="path6" />
  <path
     d="m 25.112983,190.6282 63.4025,63.4025"
     style="fill:none;stroke:#c0caf5;stroke-width:2.126;stroke-linecap:round;stroke-linejoin:round;stroke-dasharray:none;stroke-opacity:1"
     id="path7" />
  <path
     d="m 174.59519,190.6282 -63.4026,63.4025"
     style="fill:none;stroke:#c0caf5;stroke-width:2.126;stroke-linecap:round;stroke-linejoin:round;stroke-dasharray:none;stroke-opacity:1"
     id="path8" />
  <path
     d="m 111.14839,95.114501 3e-4,-66.7238 71.4631,71.4631 -33.3621,33.362099 z"
     style="fill:none;stroke:#c0caf5;stroke-width:2.126;stroke-linecap:round;stroke-linejoin:round;stroke-dasharray:none;stroke-opacity:1"
     id="path9" />
  <path
     d="m 149.24969,133.2159 38.0569,38.0568 v -44.047 l -22.0235,22.0235"
     style="fill:none;stroke:#c0caf5;stroke-width:2.126;stroke-linecap:round;stroke-linejoin:round;stroke-dasharray:none;stroke-opacity:1"
     id="path10" />
  <path
     d="m 175.96769,138.5643 v 21.3695"
     style="fill:none;stroke:#c0caf5;stroke-width:2.126;stroke-linecap:round;stroke-linejoin:round;stroke-dasharray:none;stroke-opacity:1"
     id="path11" />
  <path
     d="M 174.59489,107.8704 111.14869,45.071701"
     style="fill:none;stroke:#c0caf5;stroke-width:2.126;stroke-linecap:round;stroke-linejoin:round;stroke-dasharray:none;stroke-opacity:1"
     id="path12" />
  <path
     d="m 99.854083,99.853501 2e-4,-98.7904996 L 1.0629827,99.854101 V 198.6449"
     style="fill:none;stroke:#c0caf5;stroke-width:2.126;stroke-linecap:round;stroke-linejoin:round;stroke-dasharray:none;stroke-opacity:1"
     id="path13" />
  <path
     d="M 99.854283,1.0630014 198.64509,99.853801 V 198.6446"
     style="fill:none;stroke:#c0caf5;stroke-width:2.126;stroke-linecap:round;stroke-linejoin:round;stroke-dasharray:none;stroke-opacity:1"
     id="path14" />
  <path
     d="m 88.559983,28.390701 -3e-4,66.7238 -76.1581,76.158499 v -44.047 l 22.0237,22.0235"
     style="fill:none;stroke:#c0caf5;stroke-width:2.126;stroke-linecap:round;stroke-linejoin:round;stroke-dasharray:none;stroke-opacity:1"
     id="path15" />
  <path
     d="m 23.740083,138.5646 v 21.3698"
     style="fill:none;stroke:#c0caf5;stroke-width:2.126;stroke-linecap:round;stroke-linejoin:round;stroke-dasharray:none;stroke-opacity:1"
     id="path16" />
  <path
     d="m 88.559983,44.424001 -63.4468,63.446999 25.3452,25.3451"
     style="fill:none;stroke:#c0caf5;stroke-width:2.126;stroke-linecap:round;stroke-linejoin:round;stroke-dasharray:none;stroke-opacity:1"
     id="path17" />
  <path
     d="M 42.441983,141.2328 1.0629827,99.854101"
     style="fill:none;stroke:#c0caf5;stroke-width:2.126;stroke-linecap:round;stroke-linejoin:round;stroke-dasharray:none;stroke-opacity:1"
     id="path18" />
  <path
     d="m 157.26639,141.2325 41.3787,-41.378699"
     style="fill:none;stroke:#c0caf5;stroke-width:2.126;stroke-linecap:round;stroke-linejoin:round;stroke-dasharray:none;stroke-opacity:1"
     id="path19" />
  <path
     d="m 88.559983,28.390701 -71.4637,71.4634 33.3621,33.361999"
     style="fill:none;stroke:#c0caf5;stroke-width:2.126;stroke-linecap:round;stroke-linejoin:round;stroke-dasharray:none;stroke-opacity:1"
     id="path20" />
</svg>
